# xmcd
#
# Track frame offsets:
# 150
# 11802
# 24373
# 37377
# 49473
# 60729
# 71041
# 86170
# 98725
# 114516
# 126714
# 140006
# 153137
# 164548
# 177908
# 191053
# 204717
# 218175
# 234719
# 245458
#
# Disc length: 3482 seconds
#
#
# Revision: 0
# Processed by: cddbd v1.5.2PL0 Copyright (c) Steve Scherf et al.
# Submitted via: FreeRIP 2.951 
#
DISCID=360d9814
DTITLE=Various Artist - COUNTRY HITS
DYEAR=1900
DGENRE=Country
TTITLE0=SHE THINKS I STILL CARE  -  GEORGE JONES
TTITLE1=LOVESICK BLUES (LIVE) HANK WILLIAMS
TTITLE2=RHINESTONE COWBOY (LIVE) - GLEN CAMPBELL
TTITLE3=TAKE THIS JOB AND SHOVE IT - JOHNNY PAYCHECK
TTITLE4=CRAZY ARMS - RAY PRICE
TTITLE5=LIVE FAST, LOVE HARD, DIE YOUNG - FARON YOUNG
TTITLE6=ON MY KNEES - CHARLIE RICH AND JANIE FRICKE
TTITLE7=A SATISFIED MIND - PORTER WAGONER
TTITLE8=A JUKEBOX AND A COUNTRY SONG - DOUG STONE
TTITLE9=TAKE THESE CHAINS FROM MY HEART - HANK WILLIAMS
TTITLE10=THE WILD SIDE OF LIFE - HANK THOMPSON
TTITLE11=DON'T LET ME CROSS OVER - CARL AND PEARL BUTLER
TTITLE12=WHITE LIGHTENING - GEORGE JONES
TTITLE13=ROSE GARDEN - LYNN ANDRESON
TTITLE14=JAMBALAYA (ON THE BAYOU) - HANK WILLIAMS
TTITLE15=DON'T UNDERESTIMATE MY LOVE FOR YOU - LEE GREENWOOD
TTITLE16=SO ROUND, SO FIRM, SO FULLY PACKED - MERLE TRAVIS
TTITLE17=IN A DIFFERENT LIGHT - DOUG STONE
TTITLE18=THERE WON'T BE ANYMORE - CHARLIE RICH
TTITLE19=I WON'T MENTION IT AGAIN - RAY PRICE
EXTD=
EXTT0=
EXTT1=
EXTT2=
EXTT3=
EXTT4=
EXTT5=
EXTT6=
EXTT7=
EXTT8=
EXTT9=
EXTT10=
EXTT11=
EXTT12=
EXTT13=
EXTT14=
EXTT15=
EXTT16=
EXTT17=
EXTT18=
EXTT19=
PLAYORDER=
